<mxfile host="app.diagrams.net" modified="2023-09-13T23:21:52.106Z" agent="Mozilla/5.0 (Macintosh; Intel Mac OS X 10_15_7) AppleWebKit/537.36 (KHTML, like Gecko) Chrome/116.0.0.0 Safari/537.36" etag="UfU5zTREt8gWr-zfuRKz" version="21.7.1" type="device">
  <diagram name="Página-1" id="nVU3jyb6Ycbn-cZCelfd">
    <mxGraphModel dx="909" dy="611" grid="1" gridSize="10" guides="1" tooltips="1" connect="1" arrows="1" fold="1" page="1" pageScale="1" pageWidth="827" pageHeight="1169" math="0" shadow="0">
      <root>
        <mxCell id="0" />
        <mxCell id="1" parent="0" />
        <mxCell id="mrmbrl_iWmweMKqZ-T5N-13" style="edgeStyle=orthogonalEdgeStyle;rounded=0;orthogonalLoop=1;jettySize=auto;html=1;entryX=0.5;entryY=1;entryDx=0;entryDy=0;" parent="1" target="mrmbrl_iWmweMKqZ-T5N-12" edge="1">
          <mxGeometry relative="1" as="geometry">
            <mxPoint x="274" y="220" as="sourcePoint" />
          </mxGeometry>
        </mxCell>
        <mxCell id="mrmbrl_iWmweMKqZ-T5N-1" value="Docente" style="shape=umlActor;verticalLabelPosition=bottom;verticalAlign=top;html=1;" parent="1" vertex="1">
          <mxGeometry x="259" y="235" width="30" height="60" as="geometry" />
        </mxCell>
        <mxCell id="mrmbrl_iWmweMKqZ-T5N-4" style="edgeStyle=orthogonalEdgeStyle;rounded=0;orthogonalLoop=1;jettySize=auto;html=1;" parent="1" source="mrmbrl_iWmweMKqZ-T5N-2" edge="1">
          <mxGeometry relative="1" as="geometry">
            <mxPoint x="259" y="325" as="targetPoint" />
          </mxGeometry>
        </mxCell>
        <mxCell id="mrmbrl_iWmweMKqZ-T5N-9" style="edgeStyle=orthogonalEdgeStyle;rounded=0;orthogonalLoop=1;jettySize=auto;html=1;entryX=0.5;entryY=0;entryDx=0;entryDy=0;" parent="1" target="mrmbrl_iWmweMKqZ-T5N-8" edge="1">
          <mxGeometry relative="1" as="geometry">
            <mxPoint x="174" y="475" as="sourcePoint" />
          </mxGeometry>
        </mxCell>
        <mxCell id="mrmbrl_iWmweMKqZ-T5N-2" value="Parecerista" style="shape=umlActor;verticalLabelPosition=bottom;verticalAlign=top;html=1;" parent="1" vertex="1">
          <mxGeometry x="159" y="395" width="30" height="60" as="geometry" />
        </mxCell>
        <mxCell id="mrmbrl_iWmweMKqZ-T5N-5" style="edgeStyle=orthogonalEdgeStyle;rounded=0;orthogonalLoop=1;jettySize=auto;html=1;" parent="1" source="mrmbrl_iWmweMKqZ-T5N-3" edge="1">
          <mxGeometry relative="1" as="geometry">
            <mxPoint x="289" y="325" as="targetPoint" />
          </mxGeometry>
        </mxCell>
        <mxCell id="mrmbrl_iWmweMKqZ-T5N-3" value="Presidente" style="shape=umlActor;verticalLabelPosition=bottom;verticalAlign=top;html=1;" parent="1" vertex="1">
          <mxGeometry x="349" y="395" width="30" height="60" as="geometry" />
        </mxCell>
        <mxCell id="mrmbrl_iWmweMKqZ-T5N-8" value="Emitir Parecer" style="ellipse;whiteSpace=wrap;html=1;" parent="1" vertex="1">
          <mxGeometry x="104" y="550" width="140" height="70" as="geometry" />
        </mxCell>
        <mxCell id="mrmbrl_iWmweMKqZ-T5N-10" style="edgeStyle=orthogonalEdgeStyle;rounded=0;orthogonalLoop=1;jettySize=auto;html=1;entryX=0.5;entryY=0;entryDx=0;entryDy=0;" parent="1" target="mrmbrl_iWmweMKqZ-T5N-11" edge="1">
          <mxGeometry relative="1" as="geometry">
            <mxPoint x="364" y="475" as="sourcePoint" />
          </mxGeometry>
        </mxCell>
        <mxCell id="mrmbrl_iWmweMKqZ-T5N-11" value="Deliberar Decisão" style="ellipse;whiteSpace=wrap;html=1;" parent="1" vertex="1">
          <mxGeometry x="294" y="550" width="140" height="70" as="geometry" />
        </mxCell>
        <mxCell id="mrmbrl_iWmweMKqZ-T5N-12" value="Emitir Protocolo" style="ellipse;whiteSpace=wrap;html=1;" parent="1" vertex="1">
          <mxGeometry x="204" y="100" width="140" height="70" as="geometry" />
        </mxCell>
        <mxCell id="mrmbrl_iWmweMKqZ-T5N-14" value="Sistema para Controle de Experimentação Animal" style="text;html=1;strokeColor=none;fillColor=none;align=center;verticalAlign=middle;whiteSpace=wrap;rounded=0;" parent="1" vertex="1">
          <mxGeometry x="155" y="40" width="490" height="30" as="geometry" />
        </mxCell>
        <mxCell id="mrmbrl_iWmweMKqZ-T5N-15" value="Sistema para Emissão de Atas de Reunião" style="text;html=1;strokeColor=none;fillColor=none;align=center;verticalAlign=middle;whiteSpace=wrap;rounded=0;" parent="1" vertex="1">
          <mxGeometry x="240" y="790" width="320" height="30" as="geometry" />
        </mxCell>
        <mxCell id="mrmbrl_iWmweMKqZ-T5N-20" style="edgeStyle=orthogonalEdgeStyle;rounded=0;orthogonalLoop=1;jettySize=auto;html=1;entryX=0.5;entryY=0;entryDx=0;entryDy=0;" parent="1" target="mrmbrl_iWmweMKqZ-T5N-19" edge="1">
          <mxGeometry relative="1" as="geometry">
            <mxPoint x="589" y="380" as="sourcePoint" />
          </mxGeometry>
        </mxCell>
        <mxCell id="mrmbrl_iWmweMKqZ-T5N-44" style="edgeStyle=orthogonalEdgeStyle;rounded=0;orthogonalLoop=1;jettySize=auto;html=1;entryX=0.5;entryY=1;entryDx=0;entryDy=0;" parent="1" target="mrmbrl_iWmweMKqZ-T5N-43" edge="1">
          <mxGeometry relative="1" as="geometry">
            <mxPoint x="589" y="280" as="sourcePoint" />
          </mxGeometry>
        </mxCell>
        <mxCell id="mrmbrl_iWmweMKqZ-T5N-16" value="Secretária" style="shape=umlActor;verticalLabelPosition=bottom;verticalAlign=top;html=1;outlineConnect=0;" parent="1" vertex="1">
          <mxGeometry x="574" y="290" width="30" height="60" as="geometry" />
        </mxCell>
        <mxCell id="mrmbrl_iWmweMKqZ-T5N-19" value="Imprimir Certificados" style="ellipse;whiteSpace=wrap;html=1;" parent="1" vertex="1">
          <mxGeometry x="519" y="480" width="140" height="70" as="geometry" />
        </mxCell>
        <mxCell id="mrmbrl_iWmweMKqZ-T5N-26" style="edgeStyle=orthogonalEdgeStyle;rounded=0;orthogonalLoop=1;jettySize=auto;html=1;" parent="1" source="mrmbrl_iWmweMKqZ-T5N-21" edge="1">
          <mxGeometry relative="1" as="geometry">
            <mxPoint x="203" y="950" as="targetPoint" />
          </mxGeometry>
        </mxCell>
        <mxCell id="JZG-GqNnllfaZdmhESb5-24" style="edgeStyle=orthogonalEdgeStyle;rounded=0;orthogonalLoop=1;jettySize=auto;html=1;entryX=0.5;entryY=0;entryDx=0;entryDy=0;" edge="1" parent="1" target="JZG-GqNnllfaZdmhESb5-14">
          <mxGeometry relative="1" as="geometry">
            <mxPoint x="282" y="1140" as="sourcePoint" />
          </mxGeometry>
        </mxCell>
        <mxCell id="JZG-GqNnllfaZdmhESb5-28" style="edgeStyle=orthogonalEdgeStyle;rounded=0;orthogonalLoop=1;jettySize=auto;html=1;entryX=0;entryY=0.5;entryDx=0;entryDy=0;" edge="1" parent="1" source="mrmbrl_iWmweMKqZ-T5N-21" target="mrmbrl_iWmweMKqZ-T5N-22">
          <mxGeometry relative="1" as="geometry" />
        </mxCell>
        <mxCell id="mrmbrl_iWmweMKqZ-T5N-21" value="Emissor" style="shape=umlActor;verticalLabelPosition=bottom;verticalAlign=top;html=1;outlineConnect=0;" parent="1" vertex="1">
          <mxGeometry x="267" y="1055" width="30" height="60" as="geometry" />
        </mxCell>
        <mxCell id="mrmbrl_iWmweMKqZ-T5N-22" value="Emitir Ata" style="ellipse;whiteSpace=wrap;html=1;" parent="1" vertex="1">
          <mxGeometry x="480" y="1050" width="140" height="70" as="geometry" />
        </mxCell>
        <mxCell id="mrmbrl_iWmweMKqZ-T5N-39" style="edgeStyle=orthogonalEdgeStyle;rounded=0;orthogonalLoop=1;jettySize=auto;html=1;entryX=0;entryY=0.5;entryDx=0;entryDy=0;" parent="1" source="mrmbrl_iWmweMKqZ-T5N-24" target="mrmbrl_iWmweMKqZ-T5N-38" edge="1">
          <mxGeometry relative="1" as="geometry" />
        </mxCell>
        <mxCell id="mrmbrl_iWmweMKqZ-T5N-24" value="Funcionário" style="shape=umlActor;verticalLabelPosition=bottom;verticalAlign=top;html=1;" parent="1" vertex="1">
          <mxGeometry x="173" y="860" width="30" height="60" as="geometry" />
        </mxCell>
        <mxCell id="mrmbrl_iWmweMKqZ-T5N-28" style="edgeStyle=orthogonalEdgeStyle;rounded=0;orthogonalLoop=1;jettySize=auto;html=1;" parent="1" source="mrmbrl_iWmweMKqZ-T5N-27" edge="1">
          <mxGeometry relative="1" as="geometry">
            <mxPoint x="173" y="950" as="targetPoint" />
          </mxGeometry>
        </mxCell>
        <mxCell id="JZG-GqNnllfaZdmhESb5-27" style="edgeStyle=orthogonalEdgeStyle;rounded=0;orthogonalLoop=1;jettySize=auto;html=1;entryX=0.5;entryY=0;entryDx=0;entryDy=0;" edge="1" parent="1" target="JZG-GqNnllfaZdmhESb5-10">
          <mxGeometry relative="1" as="geometry">
            <mxPoint x="88" y="1140" as="sourcePoint" />
          </mxGeometry>
        </mxCell>
        <mxCell id="mrmbrl_iWmweMKqZ-T5N-27" value="Participante" style="shape=umlActor;verticalLabelPosition=bottom;verticalAlign=top;html=1;outlineConnect=0;" parent="1" vertex="1">
          <mxGeometry x="73" y="1055" width="30" height="60" as="geometry" />
        </mxCell>
        <mxCell id="mrmbrl_iWmweMKqZ-T5N-36" style="edgeStyle=orthogonalEdgeStyle;rounded=0;orthogonalLoop=1;jettySize=auto;html=1;entryX=0.357;entryY=0.971;entryDx=0;entryDy=0;entryPerimeter=0;" parent="1" source="mrmbrl_iWmweMKqZ-T5N-29" target="mrmbrl_iWmweMKqZ-T5N-22" edge="1">
          <mxGeometry relative="1" as="geometry" />
        </mxCell>
        <mxCell id="mrmbrl_iWmweMKqZ-T5N-29" value="Privada" style="ellipse;whiteSpace=wrap;html=1;" parent="1" vertex="1">
          <mxGeometry x="400" y="1210" width="140" height="70" as="geometry" />
        </mxCell>
        <mxCell id="mrmbrl_iWmweMKqZ-T5N-37" style="edgeStyle=orthogonalEdgeStyle;rounded=0;orthogonalLoop=1;jettySize=auto;html=1;entryX=0.693;entryY=1;entryDx=0;entryDy=0;entryPerimeter=0;" parent="1" source="mrmbrl_iWmweMKqZ-T5N-30" target="mrmbrl_iWmweMKqZ-T5N-22" edge="1">
          <mxGeometry relative="1" as="geometry" />
        </mxCell>
        <mxCell id="mrmbrl_iWmweMKqZ-T5N-30" value="Pública" style="ellipse;whiteSpace=wrap;html=1;" parent="1" vertex="1">
          <mxGeometry x="580" y="1210" width="140" height="70" as="geometry" />
        </mxCell>
        <mxCell id="mrmbrl_iWmweMKqZ-T5N-38" value="Consultar Ata" style="ellipse;whiteSpace=wrap;html=1;" parent="1" vertex="1">
          <mxGeometry x="340" y="855" width="140" height="70" as="geometry" />
        </mxCell>
        <mxCell id="mrmbrl_iWmweMKqZ-T5N-43" value="Enviar Protocolo para Parecerista" style="ellipse;whiteSpace=wrap;html=1;" parent="1" vertex="1">
          <mxGeometry x="519" y="130" width="140" height="70" as="geometry" />
        </mxCell>
        <mxCell id="JZG-GqNnllfaZdmhESb5-20" style="edgeStyle=orthogonalEdgeStyle;rounded=0;orthogonalLoop=1;jettySize=auto;html=1;" edge="1" parent="1" source="JZG-GqNnllfaZdmhESb5-6" target="JZG-GqNnllfaZdmhESb5-19">
          <mxGeometry relative="1" as="geometry" />
        </mxCell>
        <mxCell id="JZG-GqNnllfaZdmhESb5-6" value="Administradores" style="shape=umlActor;verticalLabelPosition=bottom;verticalAlign=top;html=1;outlineConnect=0;" vertex="1" parent="1">
          <mxGeometry x="155" y="1325" width="30" height="60" as="geometry" />
        </mxCell>
        <mxCell id="JZG-GqNnllfaZdmhESb5-10" value="Revisar Ata" style="ellipse;whiteSpace=wrap;html=1;" vertex="1" parent="1">
          <mxGeometry x="18" y="1210" width="140" height="70" as="geometry" />
        </mxCell>
        <mxCell id="JZG-GqNnllfaZdmhESb5-14" value="Concluir Ata" style="ellipse;whiteSpace=wrap;html=1;" vertex="1" parent="1">
          <mxGeometry x="212" y="1210" width="140" height="70" as="geometry" />
        </mxCell>
        <mxCell id="JZG-GqNnllfaZdmhESb5-19" value="Gerar Relatórios" style="ellipse;whiteSpace=wrap;html=1;" vertex="1" parent="1">
          <mxGeometry x="339" y="1320" width="140" height="70" as="geometry" />
        </mxCell>
      </root>
    </mxGraphModel>
  </diagram>
</mxfile>
